<svg width="22" height="24" viewBox="0 0 22 24" fill="none" xmlns="http://www.w3.org/2000/svg">
<path d="M20.0035 7.59027C19.9192 7.45896 19.8066 7.35164 19.6754 7.27749C19.5441 7.20335 19.3982 7.16459 19.25 7.16453H6.72193L5.66409 4.42836C5.52539 4.06804 5.29052 3.76021 4.98927 3.54391C4.68801 3.3276 4.33393 3.21257 3.97193 3.21338H1.83334V5.18896H3.97193L8.32059 16.4349C8.39025 16.6148 8.50775 16.7685 8.65831 16.8766C8.80887 16.9847 8.98575 17.0424 9.16668 17.0424H16.5C16.8823 17.0424 17.2242 16.7866 17.3589 16.4023L20.1089 8.50002C20.1609 8.35049 20.1785 8.18961 20.1601 8.03117C20.1417 7.87272 20.088 7.72144 20.0035 7.59027ZM15.8648 15.0668H9.77809L7.48643 9.14011H17.9273L15.8648 15.0668Z" fill="white"/>
<path d="M9.625 20.9936C10.3844 20.9936 11 20.3303 11 19.512C11 18.6936 10.3844 18.0303 9.625 18.0303C8.86561 18.0303 8.25 18.6936 8.25 19.512C8.25 20.3303 8.86561 20.9936 9.625 20.9936Z" fill="white"/>
<path d="M16.0417 20.9936C16.801 20.9936 17.4167 20.3303 17.4167 19.512C17.4167 18.6936 16.801 18.0303 16.0417 18.0303C15.2823 18.0303 14.6667 18.6936 14.6667 19.512C14.6667 20.3303 15.2823 20.9936 16.0417 20.9936Z" fill="white"/>
</svg>
