<svg width="110" height="34" viewBox="0 0 110 34" fill="none" xmlns="http://www.w3.org/2000/svg">
<g filter="url(#filter0_d)">
<path d="M4.47656 25.1638V0.554443H8.41406V25.1638H4.47656ZM10.207 14.0544V10.2224H12.5625C14.2734 10.2224 15.1992 9.39038 15.3398 7.72632C15.3398 7.58569 15.3398 7.44507 15.3398 7.30444C15.1758 5.45288 14.25 4.48022 12.5625 4.38647H10.207V0.554443H12.8789C17.1445 0.624756 19.2891 2.85132 19.3125 7.23413C19.3125 10.6326 18.2344 12.7537 16.0781 13.5974C15.1875 13.9021 14.1211 14.0544 12.8789 14.0544C12.832 14.0544 11.9414 14.0544 10.207 14.0544ZM21.2461 18.3083V6.74194C21.2461 5.49976 21.7734 4.23413 22.8281 2.94507C24.2344 1.25757 26.0156 0.4021 28.1719 0.378662V4.28101C26.9531 4.30444 26.0391 4.96069 25.4297 6.24976C25.2422 6.67163 25.1484 7.02319 25.1484 7.30444V18.3083C25.1484 19.574 25.8047 20.5115 27.1172 21.1208C27.5156 21.3083 27.8555 21.4021 28.1367 21.4021V25.3396C26.8008 25.3396 25.4648 24.8591 24.1289 23.8982C22.2305 22.4919 21.2695 20.6287 21.2461 18.3083ZM30.0703 25.3396V21.4021C30.6797 21.4021 31.3125 21.1208 31.9688 20.5583C32.6719 19.9255 33.0352 19.1755 33.0586 18.3083V7.30444C33.0586 6.60132 32.7539 5.92163 32.1445 5.26538C31.5586 4.63257 30.8672 4.30444 30.0703 4.28101V0.378662C32.4375 0.378662 34.3359 1.39819 35.7656 3.43726C36.5859 4.60913 36.9961 5.71069 36.9961 6.74194V18.3083C36.9961 20.9099 35.8359 22.9021 33.5156 24.2849C32.2969 24.988 31.1484 25.3396 30.0703 25.3396ZM39.8086 25.1638V0.554443H43.7461V25.1638H39.8086ZM45.5391 14.7927V11.2771H47.5078C49.5469 11.2771 50.6719 10.3044 50.8828 8.35913C50.9062 8.14819 50.918 7.94897 50.918 7.76147C50.918 5.79272 50.0273 4.63257 48.2461 4.28101C47.918 4.23413 47.5781 4.21069 47.2266 4.21069H45.5391V0.554443H47.6836C50.8008 0.624756 52.8984 1.78491 53.9766 4.03491C54.4219 4.97241 54.6445 6.05054 54.6445 7.26929C54.6211 9.87085 53.8242 11.7576 52.2539 12.9294C53.4727 13.6326 54.2461 14.8865 54.5742 16.6912C54.6211 16.9958 54.6562 17.2771 54.6797 17.5349L55.2773 25.1638H51.6211L51.0938 18.906C50.9062 16.9373 50.3789 15.6951 49.5117 15.1794C48.9961 14.9216 48.3516 14.7927 47.5781 14.7927H45.5391ZM56.6836 4.38647V0.554443H71.9062V4.38647H66.2812V25.1638H62.3438V4.38647H56.6836ZM73.9453 25.1638V0.554443H86.7422V4.42163H77.8828V10.9607H83.4375V14.8982H77.8828V21.2615H86.7422V25.1638H73.9453ZM89.5898 25.1638V6.81226H89.8711L93.5273 12.6833V25.1638H89.5898ZM89.5898 3.08569V0.554443H92.8594L105.234 20.4177V25.1638H103.336L89.5898 3.08569ZM101.297 10.8201V0.554443H105.234V16.6912H104.953L101.297 10.8201Z" fill="white"/>
</g>
<defs>
<filter id="filter0_d" x="0.476562" y="0.378662" width="108.758" height="32.9609" filterUnits="userSpaceOnUse" color-interpolation-filters="sRGB">
<feFlood flood-opacity="0" result="BackgroundImageFix"/>
<feColorMatrix in="SourceAlpha" type="matrix" values="0 0 0 0 0 0 0 0 0 0 0 0 0 0 0 0 0 0 127 0" result="hardAlpha"/>
<feOffset dy="4"/>
<feGaussianBlur stdDeviation="2"/>
<feComposite in2="hardAlpha" operator="out"/>
<feColorMatrix type="matrix" values="0 0 0 0 0 0 0 0 0 0 0 0 0 0 0 0 0 0 0.25 0"/>
<feBlend mode="normal" in2="BackgroundImageFix" result="effect1_dropShadow"/>
<feBlend mode="normal" in="SourceGraphic" in2="effect1_dropShadow" result="shape"/>
</filter>
</defs>
</svg>
