<svg width="22" height="23" viewBox="0 0 22 23" fill="none" xmlns="http://www.w3.org/2000/svg">
<g filter="url(#filter0_d)">
<path d="M13.9993 14.1667C11.3484 14.163 8.80701 13.0125 6.93252 10.9676C5.05803 8.92273 4.00344 6.15033 4 3.25841C4 2.39425 4.31468 1.56548 4.87482 0.954425C5.43495 0.343369 6.19466 8.09588e-05 6.98681 8.09588e-05C7.15455 -0.0013129 7.32201 0.0152948 7.48677 0.0496642C7.64605 0.0753771 7.80264 0.118082 7.95427 0.177164C8.06092 0.217985 8.15595 0.288467 8.22997 0.38164C8.30399 0.474814 8.35444 0.587451 8.37632 0.708414L9.26587 4.95841C9.28985 5.07378 9.28696 5.19385 9.25747 5.30768C9.22798 5.42151 9.17283 5.52547 9.09705 5.61008C9.01264 5.70925 9.00615 5.71633 8.2075 6.16966C8.84706 7.70027 9.9692 8.92944 11.3696 9.63341C11.7917 8.75508 11.7982 8.748 11.8891 8.65591C11.9666 8.57324 12.0619 8.51308 12.1663 8.48091C12.2706 8.44874 12.3807 8.44559 12.4864 8.47175L16.3823 9.44216C16.4896 9.46933 16.5888 9.52585 16.6706 9.6064C16.7524 9.68694 16.814 9.78887 16.8498 9.90258C16.9046 10.0707 16.9458 10.2437 16.9731 10.4197C16.9993 10.5977 17.0123 10.7777 17.0121 10.958C17.0001 11.8185 16.6766 12.6388 16.1121 13.24C15.5477 13.8412 14.7881 14.1743 13.9993 14.1667V14.1667ZM6.98681 1.41675C6.5396 1.41861 6.11119 1.61324 5.79496 1.95822C5.47873 2.3032 5.30032 2.77055 5.29861 3.25841C5.30033 5.77519 6.21756 8.18834 7.84889 9.96796C9.48021 11.7476 11.6923 12.7482 13.9993 12.7501C14.4465 12.7482 14.8749 12.5536 15.1912 12.2086C15.5074 11.8636 15.6858 11.3963 15.6875 10.9084V10.6747L12.6747 9.91675L12.4864 10.3063C12.1942 10.9226 11.98 11.3688 11.4345 11.128C10.3586 10.7079 9.3819 10.0315 8.57548 9.14812C7.76907 8.26472 7.15317 7.19645 6.77254 6.02091C6.53879 5.46841 6.98031 5.21341 7.53872 4.89466L7.89583 4.70341L7.20108 1.41675H6.98681Z" fill="#969696"/>
</g>
<defs>
<filter id="filter0_d" x="0" y="0" width="21.0121" height="22.167" filterUnits="userSpaceOnUse" color-interpolation-filters="sRGB">
<feFlood flood-opacity="0" result="BackgroundImageFix"/>
<feColorMatrix in="SourceAlpha" type="matrix" values="0 0 0 0 0 0 0 0 0 0 0 0 0 0 0 0 0 0 127 0" result="hardAlpha"/>
<feOffset dy="4"/>
<feGaussianBlur stdDeviation="2"/>
<feComposite in2="hardAlpha" operator="out"/>
<feColorMatrix type="matrix" values="0 0 0 0 0 0 0 0 0 0 0 0 0 0 0 0 0 0 0.25 0"/>
<feBlend mode="normal" in2="BackgroundImageFix" result="effect1_dropShadow"/>
<feBlend mode="normal" in="SourceGraphic" in2="effect1_dropShadow" result="shape"/>
</filter>
</defs>
</svg>
