<svg width="82" height="14" viewBox="0 0 82 14" fill="none" xmlns="http://www.w3.org/2000/svg">
<path d="M2.97098 7.168H2.12498V13H0.630975V0.399999H2.12498V6.268L2.93498 6.016L7.16498 0.399999H8.89298L4.68098 5.818L3.92498 6.412L4.84298 7.132L9.45098 13H7.56098L2.97098 7.168ZM19.4113 9.508H14.7673L13.5073 13H12.0313L16.8013 0.202H17.4853L22.2733 13H20.7073L19.4113 9.508ZM15.2533 8.212H18.9613L17.5573 4.378L17.1073 2.47H17.0893L16.6393 4.414L15.2533 8.212ZM32.6697 1.732H28.7457V13H27.2517V1.732H23.3277V0.399999H32.6697V1.732ZM41.0992 9.508H36.4552L35.1952 13H33.7192L38.4892 0.202H39.1732L43.9612 13H42.3952L41.0992 9.508ZM36.9412 8.212H40.6492L39.2452 4.378L38.7952 2.47H38.7772L38.3272 4.414L36.9412 8.212ZM54.007 1.732H50.245C50.125 4.132 49.963 6.13 49.759 7.726C49.567 9.31 49.273 10.546 48.877 11.434C48.613 12.01 48.301 12.43 47.941 12.694C47.581 12.958 47.191 13.09 46.771 13.09C46.555 13.09 46.369 13.072 46.213 13.036C46.057 13.012 45.907 12.97 45.763 12.91L45.961 11.614C46.081 11.65 46.207 11.668 46.339 11.668C46.543 11.668 46.741 11.602 46.933 11.47C47.137 11.338 47.335 11.092 47.527 10.732C47.695 10.408 47.851 9.976 47.995 9.436C48.151 8.896 48.283 8.212 48.391 7.384C48.511 6.556 48.607 5.572 48.679 4.432C48.751 3.28 48.805 1.936 48.841 0.399999H55.501V13H54.007V1.732ZM59.8394 6.7C59.8394 4.6 60.2834 2.992 61.1714 1.876C62.0594 0.748 63.3254 0.184 64.9694 0.184C65.8574 0.184 66.6254 0.34 67.2734 0.651999C67.9214 0.963999 68.4554 1.408 68.8754 1.984C69.3074 2.548 69.6254 3.232 69.8294 4.036C70.0334 4.828 70.1354 5.716 70.1354 6.7C70.1354 8.8 69.6854 10.414 68.7854 11.542C67.8974 12.658 66.6254 13.216 64.9694 13.216C64.0934 13.216 63.3314 13.06 62.6834 12.748C62.0474 12.436 61.5134 11.998 61.0814 11.434C60.6614 10.858 60.3494 10.174 60.1454 9.382C59.9414 8.578 59.8394 7.684 59.8394 6.7ZM61.4234 6.7C61.4234 7.396 61.4894 8.056 61.6214 8.68C61.7654 9.304 61.9814 9.856 62.2694 10.336C62.5574 10.804 62.9234 11.182 63.3674 11.47C63.8234 11.746 64.3574 11.884 64.9694 11.884C66.0854 11.884 66.9614 11.464 67.5974 10.624C68.2334 9.772 68.5514 8.464 68.5514 6.7C68.5514 6.016 68.4794 5.362 68.3354 4.738C68.2034 4.102 67.9874 3.55 67.6874 3.082C67.3994 2.602 67.0274 2.224 66.5714 1.948C66.1274 1.66 65.5934 1.516 64.9694 1.516C63.8654 1.516 62.9954 1.942 62.3594 2.794C61.7354 3.634 61.4234 4.936 61.4234 6.7ZM81.2161 1.732H75.9601V13H74.4661V0.399999H81.2161V1.732Z" fill="white"/>
</svg>
